<?xml version="1.0" standalone="no"?>
<!DOCTYPE svg PUBLIC "-//W3C//DTD SVG 20010904//EN"
 "http://www.w3.org/TR/2001/REC-SVG-20010904/DTD/svg10.dtd">
<svg version="1.0" xmlns="http://www.w3.org/2000/svg"
 width="500.000000pt" height="500.000000pt" viewBox="0 0 500.000000 500.000000"
 preserveAspectRatio="xMidYMid meet">

<g transform="translate(0.000000,500.000000) scale(0.100000,-0.100000)"
fill="#000000" stroke="none">
<path d="M2927 4623 c-3 -5 -8 -28 -12 -52 -9 -57 -40 -88 -98 -96 -47 -7 -74
-26 -63 -44 4 -6 34 -15 67 -22 60 -12 89 -34 89 -69 0 -8 5 -32 11 -52 7 -27
15 -38 29 -38 15 0 21 12 31 60 6 32 19 66 28 74 9 7 42 19 74 26 51 10 58 14
55 33 -2 17 -14 23 -59 32 -81 17 -77 12 -103 128 -6 26 -38 39 -49 20z m93
-169 c33 -11 34 -12 10 -19 -33 -10 -60 -34 -72 -65 l-10 -25 -12 30 c-15 35
-30 48 -71 63 -27 9 -27 11 -7 11 28 1 82 52 82 78 0 11 9 3 23 -22 16 -28 33
-43 57 -51z"/>
<path d="M3662 4393 c-6 -10 -13 -38 -17 -63 -15 -92 -24 -99 -150 -127 -30
-7 -40 -14 -40 -28 0 -20 10 -24 132 -50 28 -6 49 -45 58 -107 16 -104 55
-100 75 7 7 36 20 71 30 80 11 10 49 24 87 33 56 14 68 21 68 37 0 16 -12 23
-68 37 -38 9 -76 23 -86 32 -10 10 -24 45 -31 79 -16 83 -38 109 -58 70z m69
-177 c16 -14 46 -28 67 -32 l36 -7 -45 -13 c-53 -16 -84 -45 -97 -94 -8 -30
-10 -32 -16 -15 -24 69 -41 90 -90 106 l-48 16 35 7 c47 9 83 45 98 97 l12 44
9 -42 c6 -27 19 -51 39 -67z"/>
<path d="M3183 4202 c-7 -5 -24 -61 -37 -126 -35 -175 -56 -196 -231 -231
-105 -21 -134 -34 -135 -56 0 -17 35 -30 125 -49 54 -11 100 -22 102 -24 2 -1
-25 -10 -59 -20 -35 -9 -123 -39 -196 -67 -76 -28 -161 -53 -201 -58 -138 -18
-283 14 -504 108 -150 64 -202 76 -327 75 -117 -1 -217 -28 -319 -86 -78 -45
-181 -146 -226 -223 -38 -66 -39 -67 -47 -40 -4 16 -1 57 7 96 23 107 5 131
-121 164 -52 13 -60 13 -115 -5 -32 -11 -70 -20 -84 -20 -34 0 -79 -24 -104
-55 -11 -15 -33 -70 -50 -123 -27 -87 -33 -98 -60 -109 -48 -18 -73 -68 -66
-131 5 -51 3 -58 -46 -144 -154 -265 -156 -386 -9 -437 35 -12 328 -43 530
-57 l105 -6 29 -102 c56 -196 86 -260 414 -861 102 -187 210 -391 239 -454
110 -232 198 -321 316 -321 109 0 204 118 298 368 38 102 89 162 138 162 39 0
44 -7 146 -235 44 -96 95 -196 115 -222 152 -200 414 -27 514 342 92 338 91
335 219 591 141 281 215 447 278 615 l42 115 171 12 c291 22 458 42 501 61
122 55 122 146 -1 380 -49 93 -54 107 -44 134 28 82 4 159 -61 192 -24 13 -33
29 -55 103 -14 48 -34 100 -43 115 -18 32 -77 67 -113 67 -13 0 -41 7 -63 15
-80 29 -197 8 -244 -43 -20 -22 -22 -32 -17 -71 4 -25 9 -66 12 -91 l6 -45
-37 60 c-73 120 -179 207 -302 250 -67 24 -67 27 -8 40 30 7 55 22 55 34 -1
22 -30 35 -135 56 -175 35 -196 56 -231 231 -21 103 -34 134 -54 134 -3 0 -11
-4 -17 -8z m42 -157 c20 -106 32 -131 80 -173 39 -35 37 -34 175 -61 52 -11
92 -20 89 -20 -75 -11 -222 -48 -247 -63 -48 -30 -80 -93 -99 -197 -9 -50 -19
-91 -23 -91 -4 0 -14 41 -23 92 -20 109 -54 172 -108 200 -21 10 -78 27 -127
36 -50 10 -93 20 -96 23 -4 3 27 12 66 19 125 22 163 37 201 79 38 42 49 73
68 189 7 40 15 69 19 65 4 -4 15 -48 25 -98z m-1285 -360 c41 -15 131 -54 200
-87 142 -68 251 -102 377 -119 95 -13 255 -7 340 11 72 16 80 33 11 23 -73
-11 -334 -8 -383 5 l-40 10 41 1 c75 2 158 22 289 71 151 57 280 94 300 86 25
-9 48 -69 71 -179 37 -184 71 -182 110 8 26 129 45 163 100 190 35 16 43 16
115 2 244 -48 402 -217 448 -481 32 -181 -12 -436 -129 -746 -71 -189 -130
-320 -270 -601 -129 -257 -148 -306 -214 -559 -45 -171 -105 -296 -177 -367
-118 -119 -221 -122 -298 -9 -16 23 -68 128 -116 234 -91 199 -114 232 -164
232 -68 0 -133 -75 -181 -208 -64 -177 -158 -311 -229 -327 -55 -12 -110 12
-172 75 -46 47 -71 87 -129 206 -39 81 -151 292 -247 468 -326 595 -370 691
-437 946 -97 371 -64 719 89 916 79 101 204 183 335 219 90 24 266 15 360 -20z
m-971 -71 c25 -18 51 -71 51 -103 0 -11 -9 -25 -19 -31 -17 -9 -21 -4 -36 40
-9 28 -28 64 -42 80 l-25 30 24 0 c13 0 34 -7 47 -16z m130 -18 c9 -7 11 -24
6 -60 -8 -62 -12 -68 -33 -55 -10 6 -18 25 -19 45 -1 19 -9 48 -17 66 -9 17
-16 32 -16 34 0 6 65 -19 79 -30z m2901 -8 c-11 -24 -20 -55 -20 -70 0 -16 -8
-31 -19 -37 -16 -9 -19 -6 -25 21 -15 77 -7 96 49 116 17 6 31 11 32 11 1 1
-7 -18 -17 -41z m111 7 c-17 -20 -36 -56 -42 -80 -12 -48 -19 -54 -39 -30 -34
42 27 145 86 145 l26 0 -31 -35z m-3235 -4 c24 -15 37 -34 53 -82 26 -78 26
-101 1 -124 -29 -26 -43 -14 -80 64 -19 40 -40 71 -48 71 -11 0 -13 -7 -7 -27
10 -39 10 -69 1 -137 -7 -48 -6 -58 5 -54 8 3 18 18 24 34 5 16 10 31 11 32 1
2 16 -6 32 -18 27 -20 32 -21 58 -8 28 14 30 13 61 -21 37 -43 52 -37 24 10
-24 39 -26 58 -9 93 29 66 89 31 95 -56 7 -89 -40 -141 -157 -174 -30 -9 -74
-25 -97 -35 -42 -20 -74 -19 -103 4 -25 19 -56 69 -69 110 -16 49 -31 39 -20
-14 21 -91 66 -140 136 -149 l46 -5 -46 -44 c-25 -25 -53 -49 -62 -54 -50 -27
-155 132 -155 235 0 42 34 88 65 88 17 0 45 58 64 134 17 70 37 104 74 126 40
25 64 25 103 1z m3365 9 c36 0 67 -45 95 -136 34 -113 44 -134 61 -134 8 0 28
-14 45 -31 28 -28 30 -34 24 -77 -12 -86 -98 -222 -141 -222 -9 0 -41 24 -72
53 l-54 52 40 0 c71 0 132 70 147 165 8 52 -7 46 -25 -10 -16 -51 -66 -107
-101 -115 -21 -5 -44 0 -73 13 -23 11 -67 27 -97 37 -110 34 -153 80 -153 162
0 43 23 90 49 100 8 3 24 -3 34 -12 24 -22 26 -74 4 -116 -8 -17 -13 -33 -10
-37 9 -8 56 39 56 55 0 11 6 11 30 -2 39 -20 47 -19 75 9 l24 24 6 -28 c6 -29
31 -57 41 -47 3 3 0 32 -7 66 -6 33 -8 77 -4 98 9 47 9 47 -4 51 -5 2 -26 -31
-46 -72 -38 -80 -52 -89 -85 -56 -22 22 -21 37 12 128 20 55 68 98 96 87 8 -3
22 -5 33 -5z m-3163 -431 c-14 -63 -17 -263 -5 -366 8 -67 7 -73 -10 -73 -27
0 -112 45 -161 85 -55 44 -95 45 -177 7 -90 -43 -132 -55 -171 -48 -24 5 -34
12 -34 25 0 10 23 64 50 120 l50 103 31 -26 c49 -42 81 -35 151 32 33 31 67
72 74 90 9 20 21 32 34 32 28 0 125 38 152 60 13 10 24 17 26 16 1 -2 -3 -27
-10 -57z m2947 12 c28 -12 65 -25 83 -28 25 -4 36 -13 46 -37 17 -38 111 -131
147 -145 19 -7 34 -6 54 5 15 8 29 14 31 14 7 0 81 -154 87 -181 6 -24 4 -27
-31 -33 -69 -11 -110 -6 -192 24 -117 43 -149 41 -245 -20 -84 -53 -101 -59
-91 -34 24 61 48 233 49 342 1 67 4 121 7 119 3 -1 28 -13 55 -26z"/>
<path d="M2200 2822 c0 -33 127 -62 169 -40 38 21 25 33 -37 34 -31 0 -74 4
-94 9 -26 5 -38 4 -38 -3z"/>
<path d="M2920 2819 c-14 -6 -46 -9 -72 -7 -52 3 -64 -10 -27 -30 41 -22 150
1 163 34 6 17 -26 18 -64 3z"/>
<path d="M2830 2598 c0 -16 -13 -31 -43 -50 -84 -53 -182 -81 -321 -92 -80 -7
-89 -11 -52 -26 86 -32 303 20 416 100 18 13 31 16 35 10 10 -16 25 -11 25 9
0 20 -36 71 -51 71 -5 0 -9 -10 -9 -22z"/>
</g>
</svg>
