<?xml version="1.0" standalone="no"?>
<!DOCTYPE svg PUBLIC "-//W3C//DTD SVG 20010904//EN"
 "http://www.w3.org/TR/2001/REC-SVG-20010904/DTD/svg10.dtd">
<svg version="1.0" xmlns="http://www.w3.org/2000/svg"
 width="500.000000pt" height="344.000000pt" viewBox="0 0 500.000000 344.000000"
 preserveAspectRatio="xMidYMid meet">

<g transform="translate(0.000000,344.000000) scale(0.100000,-0.100000)"
fill="#000000" stroke="none">
<path d="M1925 2986 l-170 -52 2 -43 c1 -24 4 -46 7 -48 2 -3 28 2 57 11 29 8
54 14 56 13 1 -2 14 -86 29 -187 14 -102 29 -188 33 -192 3 -4 32 0 64 9 43
12 56 20 53 32 -8 28 -58 373 -54 376 2 2 26 10 53 18 l50 14 3 52 c2 28 -1
50 -5 50 -4 -1 -84 -25 -178 -53z"/>
<path d="M2270 2928 c-98 -50 -140 -194 -87 -298 26 -53 72 -80 135 -80 123 0
205 90 206 225 1 82 -18 126 -67 155 -45 28 -129 27 -187 -2z m125 -166 c0
-65 -4 -84 -19 -101 -23 -25 -58 -27 -77 -4 -17 20 -17 140 0 172 17 30 51 42
76 26 17 -11 20 -24 20 -93z"/>
<path d="M2673 2921 c-78 -36 -130 -141 -121 -241 8 -83 69 -130 167 -130 61
0 97 13 134 48 70 66 99 204 57 270 -41 66 -153 91 -237 53z m127 -86 c29 -35
-13 -169 -60 -192 -52 -26 -82 26 -61 104 18 66 47 103 80 103 16 0 34 -7 41
-15z"/>
<path d="M3088 2907 c-19 -30 -27 -35 -50 -30 -22 4 -29 0 -43 -26 -17 -33
-13 -51 11 -51 18 0 19 4 -22 -86 -48 -105 -56 -140 -40 -179 16 -37 74 -65
133 -65 22 0 57 -12 88 -29 l52 -30 61 87 c34 48 75 95 91 105 35 20 81 23 81
4 0 -7 -34 -61 -75 -120 -41 -58 -75 -108 -75 -111 0 -12 103 -57 109 -49 3 5
43 61 87 124 92 128 101 149 84 189 -15 37 -58 54 -120 48 l-49 -5 59 86 60
85 -57 23 c-31 13 -59 19 -62 15 -3 -5 -69 -98 -146 -206 -136 -192 -140 -197
-143 -162 -3 31 -7 36 -28 36 -14 0 -27 6 -30 14 -3 8 12 53 34 100 l40 85 33
-11 c30 -10 34 -9 56 18 28 36 25 46 -15 58 -37 10 -38 15 -16 58 19 36 13 44
-43 53 -40 6 -43 5 -65 -28z"/>
<path d="M1442 2669 c-89 -44 -132 -135 -112 -234 21 -103 90 -175 167 -175
65 0 152 62 192 137 11 21 9 24 -23 40 l-35 16 -38 -43 c-28 -31 -46 -42 -66
-42 -55 0 -54 18 4 74 30 30 63 73 73 96 16 36 17 48 7 82 -20 68 -89 88 -169
49z m58 -94 c17 -20 5 -61 -26 -92 -30 -30 -44 -20 -44 35 0 62 39 94 70 57z"/>
<path d="M3731 2384 c-102 -79 -187 -147 -190 -149 -6 -7 70 -85 83 -85 5 0
36 21 68 46 l59 46 39 -36 c70 -63 133 -84 199 -66 52 14 107 61 121 105 20
60 -1 106 -92 201 -44 46 -86 84 -92 83 -6 0 -94 -65 -195 -145z m264 -55 c9
-27 -13 -59 -50 -75 -39 -16 -69 -8 -99 25 -19 21 -19 22 0 35 10 8 37 28 58
45 l39 31 23 -21 c13 -12 26 -30 29 -40z"/>
<path d="M835 2245 l-28 -46 23 -30 c19 -27 20 -34 9 -61 -11 -27 -10 -32 15
-56 27 -27 27 -27 42 -7 15 19 18 18 76 -45 74 -80 103 -100 146 -100 46 0 68
14 96 63 37 64 37 78 -4 92 -33 12 -36 11 -57 -14 l-22 -26 -72 72 -72 71 22
27 c26 34 26 33 -4 70 l-25 30 -24 -30 -24 -30 -35 33 -35 34 -27 -47z"/>
<path d="M4002 2085 c-81 -25 -152 -98 -152 -158 0 -65 59 -150 131 -187 l36
-19 17 37 c13 26 14 38 6 40 -32 11 -80 66 -80 91 0 55 20 54 81 -4 61 -58 92
-75 140 -75 61 0 98 35 99 93 1 99 -106 199 -210 196 -14 0 -44 -6 -68 -14z
m166 -107 c18 -15 15 -46 -7 -58 -25 -13 -58 0 -90 33 l-23 26 33 9 c35 10 65
7 87 -10z"/>
<path d="M775 2020 c-18 -34 -27 -37 -45 -14 -8 8 -22 20 -32 25 -16 9 -21 4
-39 -36 l-21 -47 28 -29 c24 -26 26 -31 15 -55 -10 -22 -9 -28 6 -40 39 -31
53 -36 59 -19 9 23 22 19 73 -24 109 -91 160 -110 209 -75 26 18 52 65 63 112
8 36 7 36 -48 46 -27 4 -32 2 -37 -19 -10 -38 -36 -31 -114 31 l-71 56 19 31
19 31 -26 28 c-34 35 -39 35 -58 -2z"/>
<path d="M460 1860 c-30 -30 -27 -83 6 -109 15 -12 33 -21 41 -21 23 0 63 47
63 75 0 31 -41 75 -70 75 -11 0 -29 -9 -40 -20z"/>
<path d="M4288 1808 c-22 -8 -27 -14 -22 -32 5 -21 -1 -24 -81 -46 -48 -13
-101 -33 -118 -44 -60 -41 -58 -118 5 -186 28 -31 32 -42 33 -95 1 -119 77
-213 160 -200 22 3 48 14 59 23 26 23 46 74 46 116 0 44 9 66 26 66 20 0 34
-34 34 -84 0 -41 3 -47 31 -62 38 -19 49 -11 56 43 14 105 -56 213 -138 213
-74 0 -96 -25 -114 -130 -9 -54 -14 -66 -31 -68 -29 -4 -49 45 -41 103 6 41 4
45 -23 62 -23 13 -27 20 -18 30 8 10 8 17 0 25 -30 30 -13 47 71 73 46 14 89
25 96 25 6 0 17 -14 23 -31 10 -29 12 -30 52 -24 22 4 42 9 44 10 2 2 -4 18
-13 35 -19 37 -13 45 42 56 l33 6 -27 48 c-26 46 -27 47 -69 42 -35 -4 -44 -1
-53 17 -13 23 -22 24 -63 9z"/>
<path d="M2716 1780 c-4 -24 -12 -32 -36 -36 -16 -4 -30 -10 -30 -14 0 -4 14
-10 30 -14 24 -4 32 -12 36 -36 8 -38 17 -38 31 0 8 22 20 32 42 36 36 7 42
24 9 24 -32 0 -45 11 -53 43 -9 36 -21 34 -29 -3z m34 -30 l20 -20 -20 -20
-20 -20 -20 20 c-19 19 -19 21 -2 39 22 24 19 24 42 1z"/>
<path d="M620 1735 c-12 -31 -21 -57 -19 -59 2 -2 74 -47 161 -99 l156 -96 21
49 c12 27 21 53 21 58 0 5 -62 47 -137 92 -76 46 -148 90 -159 97 -20 13 -23
11 -44 -42z"/>
<path d="M3068 1704 c-5 -4 -8 -17 -8 -29 0 -27 -29 -55 -58 -55 -38 0 -33
-19 8 -30 31 -8 41 -16 46 -38 12 -55 17 -58 29 -18 12 42 22 51 69 61 23 5
27 8 15 16 -7 5 -24 9 -36 9 -25 0 -34 11 -48 58 -5 19 -13 30 -17 26z m49
-89 l21 -9 -21 -11 c-12 -6 -27 -21 -33 -34 -12 -23 -12 -23 -19 -2 -3 12 -18
27 -33 35 l-26 13 23 8 c12 4 27 18 33 31 l11 24 11 -23 c6 -12 21 -26 33 -32z"/>
<path d="M2836 1603 c-3 -10 -8 -35 -12 -56 -10 -60 -36 -85 -105 -98 -34 -7
-58 -16 -56 -22 2 -6 26 -16 53 -23 29 -6 43 -13 34 -17 -29 -12 -135 -49
-170 -59 -62 -18 -157 -4 -255 37 -112 48 -198 52 -282 16 -48 -21 -119 -86
-150 -137 -10 -17 -12 -14 -13 21 0 29 -3 36 -10 25 -11 -17 -14 -15 -28 28
-9 26 -8 32 3 32 8 0 21 -10 29 -22 9 -12 16 -18 16 -13 -1 40 -58 60 -124 44
-64 -16 -83 -32 -97 -81 -5 -22 -21 -49 -35 -60 -15 -14 -24 -32 -24 -51 0
-16 -18 -66 -40 -110 -71 -142 -52 -162 162 -179 l147 -12 21 -70 c24 -78 67
-166 177 -365 41 -74 94 -173 118 -220 49 -96 59 -109 95 -134 63 -44 127 0
174 120 29 70 60 113 83 113 7 0 39 -53 71 -117 76 -158 112 -176 197 -101 47
41 70 87 101 206 17 63 54 154 105 257 43 88 91 194 107 235 l28 75 139 12
c160 14 178 17 199 39 24 24 19 62 -17 135 -25 50 -32 75 -29 103 4 31 0 42
-21 62 -15 13 -31 41 -37 62 -13 49 -32 65 -96 81 -37 9 -58 9 -79 1 -39 -15
-44 -24 -39 -74 4 -36 3 -39 -8 -22 -36 53 -83 96 -131 117 -47 20 -50 23 -28
28 42 11 34 28 -16 36 -90 13 -108 32 -128 132 -8 38 -21 51 -29 26z m29 -68
c9 -56 38 -82 104 -96 l56 -12 -50 -12 c-27 -6 -60 -17 -71 -23 -23 -12 -44
-59 -44 -98 0 -42 -18 -34 -25 11 -9 63 -38 93 -105 109 l-55 13 40 8 c51 10
92 31 104 53 5 9 12 39 16 66 8 53 18 47 30 -19z m-624 -151 c30 -9 79 -29
110 -44 79 -40 165 -60 250 -58 l74 1 -82 6 c-83 7 -126 21 -62 21 19 0 79 16
134 35 55 19 107 35 116 35 20 0 35 -33 44 -94 12 -79 31 -70 50 23 14 74 42
94 107 80 92 -20 166 -90 193 -183 41 -138 -8 -332 -166 -647 -37 -74 -77
-169 -89 -210 -45 -155 -52 -175 -77 -212 -14 -20 -41 -47 -60 -58 -63 -39
-101 -9 -163 131 -36 82 -56 110 -77 110 -25 0 -60 -46 -83 -108 -29 -80 -82
-142 -120 -142 -40 0 -81 38 -115 107 -16 32 -85 161 -153 287 -68 125 -134
256 -147 290 -57 151 -70 324 -35 439 37 118 144 199 276 206 11 0 45 -6 75
-15z m-423 -46 c13 -13 16 -58 4 -58 -5 0 -16 16 -25 35 -17 36 -5 49 21 23z
m1403 -20 c-8 -38 -26 -47 -34 -16 -7 24 8 48 28 48 9 0 11 -10 6 -32z m62 26
c-7 -3 -17 -21 -23 -40 -12 -37 -30 -37 -30 0 0 28 18 46 45 45 11 0 15 -3 8
-5z m-1498 -35 c18 -33 17 -70 -2 -76 -6 -3 -21 13 -31 34 l-20 38 -3 -52 c-2
-28 -1 -49 4 -46 4 2 7 12 7 21 0 12 3 13 12 4 7 -7 21 -12 33 -12 12 0 25 -4
31 -10 6 -6 9 3 9 23 0 25 4 32 20 32 16 0 21 -8 23 -36 4 -43 -13 -60 -88
-88 l-55 -21 -27 20 c-31 23 -37 16 -11 -12 9 -10 25 -18 35 -18 27 0 18 -22
-16 -40 -26 -14 -28 -14 -51 15 -39 47 -45 125 -11 125 8 0 19 15 26 33 33 89
39 97 70 97 23 0 33 -7 45 -31z m1563 23 c7 -5 22 -32 33 -62 11 -29 29 -60
41 -70 26 -21 19 -71 -16 -115 -24 -29 -26 -29 -52 -15 -33 18 -43 40 -18 40
20 0 54 28 54 43 0 6 -11 0 -24 -12 l-24 -23 -59 22 c-32 12 -66 29 -75 37
-32 29 -18 103 17 89 13 -4 16 -14 13 -36 -4 -23 -2 -27 9 -19 7 6 19 9 28 6
8 -4 17 -2 20 3 9 15 25 12 25 -5 0 -8 3 -15 8 -15 4 0 5 23 3 52 l-3 52 -13
-31 c-24 -58 -63 -53 -50 6 11 52 48 75 83 53z m-1486 -287 c-2 -85 -7 -115
-16 -115 -7 0 -33 14 -58 30 l-46 31 -51 -21 c-94 -37 -108 -26 -69 55 22 45
32 53 43 35 13 -21 45 -9 77 29 19 22 46 43 61 46 15 4 30 11 33 16 3 5 11 9
17 9 9 0 11 -31 9 -115z m1458 42 c27 -31 39 -38 61 -35 25 4 30 -1 48 -41 11
-25 17 -49 15 -53 -9 -13 -80 -9 -119 7 -40 17 -65 13 -108 -17 -16 -11 -31
-18 -34 -15 -3 3 0 29 6 57 6 28 11 77 11 110 l0 58 43 -16 c24 -10 59 -34 77
-55z"/>
<path d="M2390 969 c0 -11 54 -18 69 -9 9 5 0 9 -27 12 -23 2 -42 1 -42 -3z"/>
<path d="M2695 970 c-22 -4 -31 -8 -20 -10 30 -4 59 1 70 11 10 10 11 10 -50
-1z"/>
<path d="M2677 867 c-7 -19 -65 -45 -139 -62 l-63 -15 57 4 c31 3 78 14 105
27 26 12 51 21 56 21 10 -3 9 26 -2 32 -5 3 -11 0 -14 -7z"/>
<path d="M815 1488 c-2 -7 -13 -44 -23 -83 -13 -48 -24 -69 -33 -68 -8 2 -88
34 -178 73 -89 39 -166 68 -171 65 -11 -7 -34 -105 -26 -112 11 -11 439 -193
444 -189 2 3 21 67 42 143 l38 138 -37 22 c-41 26 -50 28 -56 11z"/>
</g>
</svg>
