<?xml version="1.0" standalone="no"?>
<!DOCTYPE svg PUBLIC "-//W3C//DTD SVG 20010904//EN"
 "http://www.w3.org/TR/2001/REC-SVG-20010904/DTD/svg10.dtd">
<svg version="1.0" xmlns="http://www.w3.org/2000/svg"
 width="500.000000pt" height="500.000000pt" viewBox="0 0 500.000000 500.000000"
 preserveAspectRatio="xMidYMid meet">

<g transform="translate(0.000000,500.000000) scale(0.100000,-0.100000)"
fill="#000000" stroke="none">
<path d="M1923 3867 l-173 -51 0 -31 c0 -16 3 -39 6 -51 5 -20 7 -21 60 -6 30
9 56 13 58 11 2 -2 16 -87 31 -189 15 -102 29 -187 31 -189 3 -4 113 25 120
31 2 2 -10 89 -25 193 -16 105 -27 193 -25 197 2 3 27 12 54 19 l50 13 0 53
c0 29 -3 53 -7 52 -5 0 -86 -23 -180 -52z"/>
<path d="M2299 3825 c-56 -18 -113 -77 -128 -132 -15 -53 -14 -138 3 -176 7
-18 26 -43 41 -57 24 -22 35 -25 104 -25 67 0 83 4 118 27 60 40 88 103 88
200 0 82 -13 111 -66 150 -33 25 -105 31 -160 13z m91 -104 c15 -28 12 -116
-4 -156 -10 -22 -24 -37 -40 -41 -43 -10 -56 10 -56 88 0 67 11 105 34 120 21
14 55 8 66 -11z"/>
<path d="M2680 3809 c-73 -30 -130 -128 -130 -224 0 -105 57 -158 170 -159
123 -1 212 102 212 246 0 54 -17 86 -65 122 -32 24 -145 33 -187 15z m121
-101 c14 -27 -2 -108 -31 -156 -15 -24 -27 -32 -49 -32 -16 0 -34 7 -41 15
-22 26 11 156 47 183 26 19 61 15 74 -10z"/>
<path d="M3086 3790 c-15 -26 -23 -31 -46 -28 -24 4 -31 -1 -44 -29 -21 -43
-20 -50 4 -56 19 -5 18 -9 -20 -88 -48 -100 -56 -138 -38 -176 16 -35 70 -63
121 -63 22 0 62 -12 97 -30 l58 -29 59 82 c62 86 110 127 149 127 42 0 40 -4
-102 -201 l-34 -46 49 -27 c27 -14 53 -26 58 -26 12 0 173 224 186 261 17 43
-1 80 -47 103 -33 16 -46 18 -80 8 -22 -6 -42 -10 -42 -9 -1 1 24 38 57 82 32
44 58 83 59 86 0 12 -111 52 -119 43 -4 -5 -71 -97 -147 -204 -130 -183 -139
-193 -142 -162 -3 26 -8 32 -27 32 -13 0 -27 5 -30 10 -3 6 11 48 32 95 l38
85 40 -6 c37 -5 42 -2 62 30 25 38 24 40 -25 51 -26 5 -32 11 -26 23 22 54 28
72 23 76 -2 3 -27 8 -54 11 -48 7 -51 6 -69 -25z"/>
<path d="M1439 3550 c-81 -42 -127 -131 -115 -219 8 -59 54 -141 95 -168 83
-56 208 -4 266 108 15 28 15 29 -24 49 -39 19 -40 20 -46 0 -9 -27 -63 -70
-89 -70 -48 0 -45 20 14 78 62 63 86 114 76 167 -13 70 -99 96 -177 55z m61
-99 c13 -25 0 -58 -33 -89 l-24 -23 -7 23 c-10 40 -7 71 11 90 21 23 40 23 53
-1z"/>
<path d="M966 3464 c-9 -8 -16 -25 -16 -37 0 -13 -9 -26 -22 -32 -53 -23 -21
-102 37 -90 16 3 37 7 46 8 10 1 64 -49 132 -123 89 -95 116 -132 117 -152 0
-32 31 -68 59 -68 24 0 45 25 39 48 -4 15 -1 18 18 14 49 -9 73 48 35 82 -14
12 -32 17 -59 14 -38 -3 -41 -1 -170 135 -81 86 -129 144 -125 153 3 8 -2 25
-11 39 -19 29 -57 33 -80 9z"/>
<path d="M3736 3271 c-105 -82 -191 -152 -193 -157 -2 -5 16 -28 39 -51 l43
-42 64 49 63 50 50 -45 c73 -66 140 -80 213 -46 91 42 126 121 87 197 -11 21
-56 73 -99 115 l-78 77 -189 -147z m257 -63 c4 -14 -3 -30 -23 -49 -35 -36
-78 -38 -116 -6 l-27 23 59 47 59 46 21 -20 c12 -12 25 -30 27 -41z"/>
<path d="M836 3131 c-31 -49 -32 -54 -5 -90 20 -27 20 -30 5 -53 -15 -23 -15
-26 14 -53 28 -27 32 -28 46 -13 15 15 23 10 93 -62 85 -87 119 -102 170 -75
34 17 76 74 86 116 6 23 3 27 -22 33 -15 4 -36 9 -45 12 -11 3 -18 0 -18 -9 0
-8 -7 -20 -16 -28 -13 -11 -25 -2 -87 59 l-71 71 22 24 c27 29 27 30 -2 73
l-24 35 -25 -33 -26 -33 -35 34 -34 33 -26 -41z"/>
<path d="M3999 2966 c-139 -49 -183 -142 -119 -252 25 -44 105 -114 130 -114
3 0 14 17 24 37 17 36 17 38 0 48 -60 34 -91 94 -63 122 8 8 26 -3 66 -42 68
-68 126 -92 178 -75 92 30 92 144 -1 234 -56 54 -138 70 -215 42z m165 -109
c28 -21 17 -51 -20 -55 -38 -4 -105 45 -82 59 20 13 82 11 102 -4z"/>
<path d="M774 2904 l-20 -36 -31 26 c-17 14 -35 26 -41 26 -5 0 -17 -20 -26
-45 -17 -44 -17 -44 9 -79 21 -28 24 -38 16 -55 -14 -26 -15 -24 20 -50 28
-21 32 -21 48 -7 17 15 22 13 82 -35 80 -64 109 -79 152 -79 42 0 90 48 106
107 15 54 14 63 -11 63 -13 0 -33 3 -44 6 -17 4 -23 0 -28 -20 -4 -15 -14 -26
-23 -26 -16 0 -153 105 -153 118 0 4 7 18 16 31 16 22 15 24 -17 57 l-34 33
-21 -35z"/>
<path d="M458 2743 c-33 -39 -28 -90 10 -119 42 -32 102 0 102 55 0 64 -75
107 -112 64z"/>
<path d="M4300 2696 c-27 -10 -35 -19 -35 -37 0 -20 -9 -26 -76 -45 -129 -37
-169 -68 -169 -129 0 -32 50 -122 72 -130 9 -4 13 -28 13 -73 0 -149 101 -241
206 -186 35 18 59 67 59 122 0 21 7 47 15 58 15 19 15 19 31 -1 10 -13 14 -37
13 -69 -3 -48 -2 -49 34 -64 21 -8 41 -12 44 -8 4 4 9 32 11 64 10 136 -93
246 -186 198 -44 -23 -60 -51 -68 -117 -8 -72 -17 -88 -41 -73 -26 16 -38 68
-25 110 10 33 9 35 -19 50 -22 11 -28 20 -24 34 3 10 1 21 -5 25 -5 3 -10 14
-10 25 0 14 16 23 68 38 122 37 117 37 132 2 12 -30 16 -32 52 -27 22 3 42 7
44 10 3 3 -1 21 -9 40 l-15 35 44 12 c24 7 44 15 44 17 0 2 -12 24 -26 48 -25
44 -26 44 -70 38 -40 -5 -44 -4 -53 21 -6 14 -12 26 -13 25 -2 0 -19 -6 -38
-13z"/>
<path d="M2714 2668 c-7 -24 -18 -35 -42 -42 -41 -11 -41 -23 0 -34 25 -6 35
-16 42 -40 11 -41 23 -41 34 0 6 25 15 34 40 40 41 11 41 23 0 34 -24 7 -34
17 -40 42 -11 41 -23 41 -34 0z m36 -44 c11 -12 10 -18 -3 -32 -16 -15 -18
-15 -34 0 -13 14 -14 20 -3 32 7 9 16 16 20 16 4 0 13 -7 20 -16z"/>
<path d="M620 2624 c-11 -26 -20 -52 -20 -59 0 -7 62 -50 138 -95 75 -46 147
-90 159 -98 22 -13 23 -12 48 44 14 31 24 58 23 59 -68 42 -320 195 -323 195
-2 0 -13 -21 -25 -46z"/>
<path d="M3054 2556 c-7 -40 -14 -46 -58 -56 -41 -8 -36 -22 11 -35 32 -9 39
-16 47 -48 11 -43 29 -44 36 -2 5 28 27 45 73 59 22 7 13 26 -11 26 -29 0 -60
28 -64 57 -5 40 -26 40 -34 -1z m57 -61 c23 -7 23 -8 -4 -22 -15 -7 -27 -21
-27 -30 0 -11 -6 -8 -21 11 -11 14 -28 26 -37 27 -12 0 -11 3 5 9 12 5 28 18
35 29 12 20 13 20 20 2 4 -11 17 -22 29 -26z"/>
<path d="M2837 2493 c-3 -5 -10 -34 -17 -66 -13 -66 -31 -82 -104 -96 -52 -10
-79 -27 -55 -36 8 -2 32 -9 54 -13 24 -6 34 -11 25 -15 -8 -3 -48 -18 -89 -33
-128 -47 -193 -43 -336 20 -90 39 -203 43 -276 10 -45 -21 -110 -77 -142 -124
-17 -25 -17 -25 -12 26 8 65 -7 79 -84 78 -81 0 -113 -19 -131 -77 -9 -27 -26
-57 -39 -67 -17 -12 -24 -28 -24 -50 0 -19 -17 -65 -39 -107 -46 -90 -50 -135
-12 -160 22 -14 200 -39 304 -42 11 -1 25 -28 43 -83 15 -46 74 -170 133 -278
58 -107 124 -231 146 -275 67 -133 119 -184 173 -171 36 9 91 79 115 144 24
65 51 102 76 102 10 0 32 -36 61 -97 53 -116 84 -153 127 -153 79 0 140 78
181 233 18 65 55 159 105 262 43 88 90 192 105 230 15 39 30 73 34 77 3 4 63
12 131 18 190 16 224 30 222 90 0 17 -14 58 -31 92 -21 44 -30 76 -29 105 2
33 -3 45 -22 61 -13 11 -31 41 -40 68 -11 35 -23 53 -42 62 -43 20 -119 25
-148 9 -22 -12 -25 -19 -22 -61 l2 -48 -32 48 c-24 36 -49 57 -92 79 -47 23
-55 31 -38 33 43 6 23 30 -35 42 -84 17 -91 26 -117 143 -6 26 -20 35 -29 20z
m35 -116 c12 -31 44 -51 103 -62 l40 -8 -53 -12 c-64 -15 -90 -37 -98 -84 -11
-61 -21 -67 -28 -18 -10 66 -32 88 -102 102 l-59 12 45 7 c25 5 56 15 68 23
27 16 51 69 53 110 1 27 2 26 11 -7 6 -19 15 -48 20 -63z m-547 -148 c50 -23
113 -47 140 -55 54 -15 198 -18 230 -4 12 5 -12 6 -56 3 -47 -4 -83 -1 -95 5
-18 11 -17 11 4 12 13 0 71 16 129 36 122 42 127 40 144 -47 18 -91 41 -90 54
2 12 89 64 110 160 65 61 -28 97 -66 124 -127 63 -141 22 -321 -154 -688 -52
-108 -92 -208 -105 -260 -25 -98 -47 -145 -86 -185 -76 -75 -111 -57 -183 91
-35 72 -62 115 -74 119 -32 10 -68 -27 -101 -105 -83 -194 -148 -190 -255 16
-33 65 -106 201 -161 303 -55 102 -109 212 -120 245 -119 356 -16 614 245 615
61 0 82 -6 160 -41z m-505 -18 c12 -23 13 -51 3 -51 -5 1 -15 16 -24 35 -13
28 -14 35 -3 35 7 0 18 -9 24 -19z m34 13 c10 -4 16 -18 16 -35 0 -39 -13 -36
-26 6 -6 19 -10 35 -8 35 1 0 9 -3 18 -6z m1362 -29 c-6 -19 -14 -35 -18 -35
-13 0 -9 58 5 63 23 10 24 7 13 -28z m45 0 c-9 -19 -19 -34 -23 -35 -14 0 -8
38 8 54 26 26 32 18 15 -19z m-1488 10 c18 -17 31 -70 22 -85 -11 -18 -25 -10
-42 25 -9 19 -19 35 -22 35 -3 0 -6 -23 -6 -50 0 -28 3 -50 7 -50 5 0 8 7 8
15 0 17 16 20 25 4 4 -6 14 -8 22 -5 9 4 21 2 28 -4 10 -8 13 -4 12 22 -2 42
29 53 39 13 11 -44 -9 -71 -72 -95 -74 -27 -95 -24 -116 20 -14 27 -18 30 -18
14 0 -30 37 -74 63 -74 21 0 21 -1 -4 -25 -32 -33 -52 -25 -79 29 -26 55 -25
72 4 91 14 9 29 34 36 61 20 70 58 94 93 59z m1580 1 c8 -8 20 -35 27 -60 8
-28 22 -52 37 -62 21 -13 24 -21 19 -46 -8 -39 -44 -98 -60 -98 -7 0 -23 11
-36 25 -23 25 -23 25 -2 25 25 0 62 44 62 74 0 16 -4 13 -18 -14 -22 -45 -52
-49 -125 -16 -59 26 -81 61 -60 95 18 28 38 19 36 -17 -1 -27 2 -31 13 -22 7
7 18 9 23 5 6 -3 20 -1 31 5 16 9 20 8 20 -5 0 -8 3 -15 8 -15 4 0 7 22 7 50
0 27 -3 50 -6 50 -3 0 -13 -16 -22 -36 -21 -43 -43 -40 -39 7 5 58 51 88 85
55z m-1498 -281 c0 -129 -2 -131 -74 -77 l-33 26 -65 -23 c-81 -29 -93 -21
-65 43 23 50 24 51 53 36 24 -13 67 13 89 54 7 14 20 26 29 26 11 1 66 25 66
30 0 0 0 -52 0 -115z m1419 85 c8 0 17 -9 21 -20 10 -32 65 -72 90 -66 18 5
25 -1 40 -33 28 -64 6 -75 -93 -44 l-55 17 -49 -27 c-42 -24 -49 -25 -44 -10
13 41 26 166 20 190 l-7 25 31 -16 c17 -9 38 -16 46 -16z"/>
<path d="M2394 1846 c22 -18 62 -21 71 -6 3 6 -4 10 -17 10 -13 0 -34 3 -48 6
-24 5 -24 5 -6 -10z"/>
<path d="M2692 1853 c-18 -2 -30 -9 -27 -14 9 -14 49 -11 71 6 20 15 19 16
-44 8z"/>
<path d="M2674 1752 c11 -18 -72 -54 -136 -59 -32 -3 -58 -10 -58 -16 0 -17
114 0 161 24 24 13 48 22 52 21 15 -4 3 31 -12 36 -8 3 -11 0 -7 -6z"/>
<path d="M816 2378 c-9 -28 -25 -85 -36 -124 l-10 -42 -173 74 c-94 41 -177
74 -182 74 -6 0 -18 -27 -27 -59 l-16 -60 225 -96 c124 -53 229 -93 233 -88
13 14 80 277 72 284 -4 3 -24 16 -45 28 -28 17 -38 19 -41 9z"/>
</g>
</svg>
